<svg xmlns="http://www.w3.org/2000/svg" xml:space="preserve" width="200.214" height="204.517" style="shape-rendering:geometricPrecision;text-rendering:geometricPrecision;image-rendering:optimizeQuality;fill-rule:evenodd;clip-rule:evenodd" viewBox="0 0 3990.65 4076.43">
    <defs>
        <radialGradient id="id0" gradientUnits="userSpaceOnUse" gradientTransform="matrix(.97807 0 0 1.02116 43 -43)" cx="1966.62" cy="2048.65" r="1956.36" fx="1966.62" fy="2048.65">
            <stop offset="0" style="stop-opacity:1;stop-color:#e6e6e6"/>
            <stop offset=".639" style="stop-opacity:1;stop-color:#d6d7d6"/>
            <stop offset=".827" style="stop-opacity:1;stop-color:#c3c3c3"/>
            <stop offset="1" style="stop-opacity:1;stop-color:#b0b0b0"/>
        </radialGradient>
        <style>
            .str0{stroke:#272827;stroke-width:106.3;stroke-miterlimit:22.9256}
        </style>
    </defs>
    <g id="Layer_x0020_1">
        <path class="str0" d="M1856.77 4023.28 315.54 2482.04l-35.31-35.3c-92.07-92.08-169.67-110.08-169.67-241.4v-327.62c0-111.84 91.51-203.35 203.35-203.35h788.69V110.56h1842.86V1674.37h788.69c111.84 0 203.35 91.51 203.35 203.35V2205.34c0 131.31-77.6 149.32-169.67 241.4l-35.31 35.3-1541.23 1541.24h-334.51z" style="fill:#272827"/>
        <path class="str0" d="M1799.37 3965.87 258.14 2424.63l-35.31-35.3c-92.07-92.08-169.67-110.08-169.67-241.4v-327.62c0-111.84 91.51-203.35 203.35-203.35h788.69V53.15h1842.86V1616.96h788.69c111.84 0 203.35 91.51 203.35 203.35V2147.93c0 131.31-77.6 149.32-169.67 241.4l-35.31 35.3-1541.23 1541.24h-334.51z" style="fill:url(#id0)"/>
    </g>
</svg>
